<?xml version="1.0" standalone="no"?><!DOCTYPE svg PUBLIC "-//W3C//DTD SVG 1.1//EN" "http://www.w3.org/Graphics/SVG/1.1/DTD/svg11.dtd"><svg t="1765649327728" class="icon" viewBox="0 0 1024 1024" version="1.1" xmlns="http://www.w3.org/2000/svg" p-id="4641" xmlns:xlink="http://www.w3.org/1999/xlink" width="200" height="200"><path d="M85.34016 42.65984q18.00192 0 30.33088 12.32896l268.32896 268.32896 0-195.66592q0-17.67424 12.4928-30.16704t30.16704-12.4928 30.16704 12.4928 12.4928 30.16704l0 298.65984q0 17.67424-12.67712 30.33088t-30.33088 12.67712l-298.65984 0q-17.67424 0-30.16704-12.4928t-12.4928-30.16704 12.4928-30.16704 30.16704-12.4928l195.66592 0-268.32896-268.32896q-12.32896-12.32896-12.32896-30.33088 0-18.3296 12.16512-30.49472t30.49472-12.16512zM597.66784 554.65984l298.65984 0q17.67424 0 30.16704 12.4928t12.4928 30.16704-12.4928 30.16704-30.16704 12.4928l-195.66592 0 268.00128 268.32896q12.67712 12.67712 12.67712 30.33088t-12.4928 30.16704-30.16704 12.4928q-18.00192 0-30.33088-12.32896l-268.32896-268.32896 0 195.66592q0 17.67424-12.4928 30.16704t-30.16704 12.4928-30.16704-12.4928-12.4928-30.16704l0-298.65984q0-17.67424 12.67712-30.33088t30.33088-12.67712z" fill="#000000" p-id="4642"></path></svg>